<svg width="170" height="170" viewBox="0 0 170 170" fill="none" xmlns="http://www.w3.org/2000/svg">
<path d="M85 10C43.6 10 10 43.6 10 85C10 126.4 43.6 160 85 160C126.4 160 160 126.4 160 85C160 43.6 126.4 10 85 10ZM64.675 117.175L37.75 90.25C34.825 87.325 34.825 82.6 37.75 79.675C40.675 76.75 45.4 76.75 48.325 79.675L70 101.275L121.6 49.675C124.525 46.75 129.25 46.75 132.175 49.675C135.1 52.6 135.1 57.325 132.175 60.25L75.25 117.175C72.4 120.1 67.6 120.1 64.675 117.175Z" fill="#386190"/>
</svg>
