<svg width="24" height="27" viewBox="0 0 24 27" fill="none" xmlns="http://www.w3.org/2000/svg">
<path d="M23.6889 13.9212L12.8901 0.911748C12.4354 0.362751 11.5619 0.362751 11.1071 0.911748L0.308346 13.9212C0.152911 14.108 0.0508845 14.3397 0.014672 14.5883C-0.0215404 14.8368 0.00962142 15.0913 0.104369 15.321C0.296347 15.7906 0.725899 16.0925 1.19985 16.0925H3.59958V25.1991C3.59958 25.5441 3.72599 25.875 3.95101 26.119C4.17603 26.3629 4.48122 26.5 4.79944 26.5H8.39904C8.71727 26.5 9.02246 26.3629 9.24747 26.119C9.47249 25.875 9.59891 25.5441 9.59891 25.1991V19.9953H14.3984V25.1991C14.3984 25.5441 14.5248 25.875 14.7498 26.119C14.9748 26.3629 15.28 26.5 15.5982 26.5H19.1978C19.5161 26.5 19.8213 26.3629 20.0463 26.119C20.2713 25.875 20.3977 25.5441 20.3977 25.1991V16.0925H22.7974C23.0298 16.0935 23.2574 16.0213 23.4526 15.8845C23.6478 15.7477 23.802 15.5523 23.8965 15.3222C23.991 15.092 24.0217 14.837 23.9848 14.5882C23.948 14.3394 23.8452 14.1077 23.6889 13.9212Z" fill="#9BB0C7"/>
</svg>
